<svg id="Layer_1" style="enable-background:new 0 0 556 186;" version="1.1" viewBox="0 0 556 186" x="0px" xml:space="preserve" xmlns="http://www.w3.org/2000/svg" xmlns:xlink="http://www.w3.org/1999/xlink" y="0px">
<style type="text/css">
	.st0{fill:#0079B6;}
	.st1{fill:#2F2B2C;}
	.st2{fill:#E40B42;}
	.st3{fill:#221E20;}
</style>
<g>
<g>
<path class="st0" d="M221.7,60.3c-0.3-2.4-0.9-4.6-1.7-6.6c-0.4-0.9-0.8-1.9-1.2-2.7c-1.3-2.5-2.8-4.7-4.7-6.6
			c-2.5-2.5-5.5-4.5-9-5.8c-3.5-1.3-7.3-2-11.4-2c-0.4,0-0.9,0-1.3,0c-4.4,0.1-8.3,1-11.9,2.5c-3.9,1.7-7.2,4-9.9,6.9
			c-2.7,2.9-4.8,6.4-6.2,10.3c-1.5,3.9-2.2,8.2-2.2,12.6c0,5.8,0.8,10.8,2.5,15.2c1.7,4.4,3.9,8,6.8,11c2.9,3,6.3,5.2,10.2,6.7
			c3.9,1.5,8.2,2.3,12.7,2.3c0.4,0,0.7,0,1.1,0c2,0,4-0.2,6-0.5c2.5-0.3,4.9-0.9,7.2-1.8c2.4-0.8,4.6-1.9,6.8-3.3
			c2.2-1.4,4.1-3.1,5.9-5.2l-4.6-5.8c-0.3-0.5-0.7-0.8-1.2-1.1c-0.5-0.3-1-0.4-1.7-0.4c-1,0-2,0.3-3,0.9c-1,0.6-2.3,1.3-3.6,2
			c-1.4,0.7-3,1.4-4.9,2c-1.9,0.6-4.1,0.9-6.6,0.9c-5.2,0-9.4-1.6-12.5-4.7c-1.2-1.2-2.2-2.6-3-4.3l19.2-10.5L221.7,60.3z M178,73.3
			c-0.2-0.8-0.4-3.1-0.5-4.2c-0.1-2.5,0.5-6.3,0.5-6.4c0.7-4.7,2.6-8.4,5.1-10.9c2.6-2.6,6.2-3.9,10.8-3.9c2.3,0,4.4,0.4,6.1,1.2
			c1.7,0.8,3.2,1.9,4.4,3.2c1.2,1.4,2.1,3.1,2.6,5l-10.1,5.5L178,73.3z"></path>
</g>
<g>
<path class="st0" d="M268,89.7c-0.3-0.2-0.7-0.4-1.2-0.4c-0.4,0-0.8,0.1-1.2,0.4c-0.4,0.2-0.8,0.5-1.3,0.7
			c-0.5,0.3-1.1,0.5-1.7,0.7c-0.7,0.2-1.5,0.4-2.5,0.4c-1.7,0-3.1-0.6-4.1-1.7c-1-1.2-1.5-2.7-1.5-4.8V49.4h17.3V38.2h-17.3V17.5
			h-8.2c-0.9,0-1.7,0.2-2.3,0.7c-0.6,0.5-1,1.1-1.2,2l-3.3,17.9L229,39.8v6.3c0,1.1,0.3,1.9,0.9,2.5c0.6,0.6,1.4,0.8,2.2,0.8h6.7
			v36.6c0,5.7,1.5,10.1,4.6,13.3c3.1,3.2,7.4,4.8,13.1,4.8c3.2,0,6.3-0.5,9.3-1.5c3-1,5.6-2.4,7.9-4.3l-4.7-7.7
			C268.6,90.3,268.3,89.9,268,89.7"></path>
</g>
<g>
<path class="st0" d="M469.5,51.4c-1-3-2.4-5.7-4.2-7.9c-1.9-2.2-4.2-3.9-6.9-5.1c-2.8-1.2-5.9-1.8-9.5-1.8
			c-4.1,0-7.7,0.7-10.8,2.2c-3.1,1.5-5.9,3.5-8.4,5.9V8.2h-11.3c-2.5,0-4.5,2-4.5,4.5v85.6c0,2.7,2.2,4.9,4.9,4.9h10.9V55.8
			c2.1-2.1,4.4-3.8,6.8-5.1c2.4-1.2,4.9-1.9,7.7-1.9c3.7,0,6.5,1.1,8.3,3.3c1.9,2.2,2.8,5.3,2.8,9.3v36.7c0,2.8,2.3,5,5,5h10
			c0.4,0,0.8-0.3,0.8-0.8v-41C471,57.8,470.5,54.4,469.5,51.4"></path>
</g>
<g>
<path class="st0" d="M396.3,86.2c-1,0-1.9,0.3-2.7,0.9c-0.8,0.6-1.7,1.3-2.8,2c-1.1,0.7-2.4,1.4-3.9,2c-1.6,0.6-3.6,0.9-6.1,0.9
			c-2.5,0-4.8-0.5-6.8-1.4c-2-1-3.7-2.4-5.1-4.2c-1.4-1.9-2.5-4.1-3.2-6.9c-0.7-2.7-1.1-5.8-1.1-9.3c0-3.4,0.3-6.4,1-9
			c0.7-2.7,1.7-4.9,3.1-6.8c1.4-1.9,3.1-3.3,5.2-4.3c2.1-1,4.5-1.5,7.3-1.5c2.2,0,4,0.2,5.5,0.7c1.5,0.5,2.7,1,3.8,1.7
			c1.1,0.6,2,1.2,2.8,1.7c0.8,0.5,1.6,0.7,2.4,0.7c0.9,0,1.5-0.2,2-0.5c0.4-0.3,0.9-0.8,1.4-1.4l4.2-5.8c-2.9-2.9-6.3-5.2-9.9-6.8
			c-3.7-1.6-8-2.4-12.9-2.4c-5.2,0-9.7,0.9-13.7,2.6c-4,1.7-7.3,4.1-10,7.1c-2.7,3-4.7,6.6-6.1,10.7c-1.4,4.1-2.1,8.6-2.1,13.4
			c0,5.4,0.8,10.2,2.3,14.4s3.7,7.7,6.3,10.6c2.7,2.9,5.8,5.1,9.4,6.6c3.6,1.5,7.4,2.3,11.4,2.3c2.3,0,4.6-0.2,7-0.5
			c2.3-0.3,4.6-0.9,6.8-1.8c2.2-0.8,4.3-1.9,6.4-3.3c2-1.4,3.9-3.1,5.7-5.1l-4.5-5.8C398.5,86.7,397.6,86.2,396.3,86.2"></path>
</g>
<g>
<path class="st0" d="M339.5,60.3c-0.3-2.4-0.9-4.6-1.7-6.6c-0.4-0.9-0.8-1.9-1.2-2.7c-1.3-2.5-2.8-4.7-4.7-6.6
			c-2.5-2.5-5.5-4.5-9-5.8c-3.5-1.3-7.3-2-11.4-2c-0.4,0-0.9,0-1.3,0c-4.4,0.1-8.3,1-11.9,2.5c-3.9,1.7-7.2,4-9.9,6.9
			c-2.7,2.9-4.8,6.4-6.2,10.3c-1.5,3.9-2.2,8.2-2.2,12.6c0,5.8,0.8,10.8,2.5,15.2c1.7,4.4,3.9,8,6.8,11c2.9,3,6.3,5.2,10.2,6.7
			c3.9,1.5,8.2,2.3,12.7,2.3c0.4,0,0.7,0,1.1,0c2,0,4-0.2,6-0.5c2.5-0.3,4.9-0.9,7.2-1.8c2.4-0.8,4.6-1.9,6.8-3.3
			c2.2-1.4,4.1-3.1,5.9-5.2l-4.6-5.8c-0.3-0.5-0.7-0.8-1.2-1.1c-0.5-0.3-1-0.4-1.7-0.4c-1,0-2,0.3-3,0.9c-1,0.6-2.3,1.3-3.6,2
			c-1.4,0.7-3,1.4-4.9,2c-1.9,0.6-4.1,0.9-6.6,0.9c-5.2,0-9.4-1.6-12.5-4.7c-1.2-1.2-2.2-2.6-3-4.3l19.2-10.5L339.5,60.3z
			 M295.9,73.3c-0.2-0.8-0.4-3.1-0.5-4.2c-0.1-2.5,0.5-6.3,0.5-6.4c0.7-4.7,2.6-8.4,5.1-10.9c2.6-2.6,6.2-3.9,10.8-3.9
			c2.3,0,4.4,0.4,6.1,1.2c1.7,0.8,3.2,1.9,4.4,3.2c1.2,1.4,2.1,3.1,2.6,5l-10.1,5.5L295.9,73.3z"></path>
</g>
<g>
<path class="st0" d="M156.5,16.1v-5.3H88v9.6c0,2.3,1.8,4.1,4.1,4.1h42.1l-47.3,67c-1.2,1.8-1.9,3.9-1.9,6v5.7h70.3v-9.6
			c0-2.3-1.9-4.2-4.2-4.2h-43.8l46.8-66.1C155.6,21.3,156.5,18.7,156.5,16.1"></path>
</g>
<g>
<g>
<path class="st1" d="M281.5,125.5l-1.3,3.9h-1.7l4.2-12.4h1.9l4.2,12.4h-1.7l-1.3-3.9H281.5z M285.5,124.3l-1.2-3.6
				c-0.3-0.8-0.5-1.5-0.6-2.3h0c-0.2,0.7-0.4,1.5-0.6,2.2l-1.2,3.6H285.5z"></path>
<path class="st1" d="M303.3,129c-0.6,0.3-1.8,0.6-3.3,0.6c-3.5,0-6.1-2.2-6.1-6.3c0-3.9,2.6-6.5,6.5-6.5c1.5,0,2.5,0.3,2.9,0.6
				l-0.4,1.3c-0.6-0.3-1.5-0.5-2.5-0.5c-2.9,0-4.8,1.9-4.8,5.1c0,3,1.7,5,4.8,5c1,0,2-0.2,2.6-0.5L303.3,129z"></path>
<path class="st1" d="M315.5,123.1c0,4.3-2.6,6.5-5.8,6.5c-3.3,0-5.6-2.5-5.6-6.3c0-3.9,2.4-6.5,5.8-6.5
				C313.3,116.8,315.5,119.4,315.5,123.1z M305.9,123.3c0,2.6,1.4,5,4,5c2.5,0,4-2.3,4-5.1c0-2.5-1.3-5-4-5
				C307.2,118.1,305.9,120.6,305.9,123.3z"></path>
<path class="st1" d="M328,124c-0.1-1.7-0.2-3.8-0.2-5.3h-0.1c-0.4,1.5-0.9,3-1.6,4.7l-2.2,6h-1.2l-2-5.9
				c-0.6-1.7-1.1-3.3-1.4-4.8h0c0,1.5-0.1,3.6-0.2,5.5l-0.3,5.3h-1.5l0.9-12.4h2l2.1,6c0.5,1.5,0.9,2.9,1.3,4.2h0.1
				c0.3-1.3,0.8-2.6,1.3-4.2l2.2-6h2l0.8,12.4h-1.6L328,124z"></path>
<path class="st1" d="M332.3,117.2c0.8-0.1,1.8-0.2,3.1-0.2c1.6,0,2.7,0.4,3.5,1c0.7,0.6,1.1,1.5,1.1,2.6c0,1.1-0.3,2-1,2.6
				c-0.8,0.9-2.2,1.4-3.8,1.4c-0.5,0-0.9,0-1.3-0.1v5h-1.6V117.2z M333.9,123.1c0.3,0.1,0.8,0.1,1.3,0.1c1.9,0,3.1-0.9,3.1-2.6
				c0-1.6-1.2-2.4-2.9-2.4c-0.7,0-1.2,0.1-1.5,0.1V123.1z"></path>
<path class="st1" d="M342.6,125.5l-1.3,3.9h-1.7l4.2-12.4h1.9l4.2,12.4h-1.7l-1.3-3.9H342.6z M346.6,124.3l-1.2-3.6
				c-0.3-0.8-0.5-1.5-0.6-2.3h0c-0.2,0.7-0.4,1.5-0.6,2.2l-1.2,3.6H346.6z"></path>
<path class="st1" d="M351.8,129.4V117h1.7l4,6.3c0.9,1.5,1.6,2.8,2.2,4l0,0c-0.1-1.7-0.2-3.2-0.2-5.1V117h1.5v12.4h-1.6l-3.9-6.3
				c-0.9-1.4-1.7-2.8-2.3-4.1l-0.1,0c0.1,1.6,0.1,3.1,0.1,5.1v5.3H351.8z"></path>
<path class="st1" d="M366.5,129.4v-5.3l-3.9-7.1h1.8l1.7,3.4c0.5,0.9,0.8,1.7,1.2,2.6h0c0.3-0.8,0.8-1.6,1.3-2.6l1.8-3.4h1.8
				l-4.2,7.1v5.3H366.5z"></path>
<path class="st1" d="M379.2,117v12.4h-1.6V117H379.2z"></path>
<path class="st1" d="M382,129.4V117h1.7l4,6.3c0.9,1.5,1.6,2.8,2.2,4l0,0c-0.1-1.7-0.2-3.2-0.2-5.1V117h1.5v12.4h-1.6l-3.9-6.3
				c-0.9-1.4-1.7-2.8-2.3-4.1l-0.1,0c0.1,1.6,0.1,3.1,0.1,5.1v5.3H382z"></path>
</g>
<g>
<g>
<g>
<path class="st2" d="M297.9,141.9c10.5,0.9,22.1,6.2,28.7,13.8c8.5,9.7,5.6,19.4-6.5,21.7c-12.1,2.3-28.7-3.8-37.2-13.5
						c-6.5-7.4-6.3-14.8-0.4-18.9l33.5,24.8L297.9,141.9z"></path>
</g>
</g>
<g>
<g>
<g>
<path class="st3" d="M463.5,177.3l-4.2-16.9c-0.6-2-0.8-4-1.3-6h-0.1c-0.4,2.1-0.5,4.1-1.1,6.1l-4.3,16.8h-7.3l9.8-35.3h5.7
							l10.2,35.3H463.5z"></path>
</g>
<g>
<path class="st3" d="M352.2,142l4.2,16.9c0.6,2,0.8,4,1.3,6h0.1c0.4-2.1,0.5-4.1,1.1-6.1l4.3-16.8h7.3l-9.8,35.3h-5.7
							L344.7,142H352.2z"></path>
</g>
<g>
<path class="st3" d="M382.6,142v35.3h-7V142H382.6z"></path>
</g>
<g>
<path class="st3" d="M422,142l3.4,20.8h0.1l2.8-20.8h9.4l3.7,35.3h-7.2l-1.7-25.4h-0.1l-1.1,8.7l-3,16.7h-5.4l-3.4-16.9
							l-1.2-7.9v-0.7h-0.1l-1,25.4h-7.5l3.1-35.3H422z"></path>
</g>
<g>
<path class="st3" d="M399.8,142c-1.2,0.8-2.1,2.3-2.7,3.8c-1.8,4.4,0.1,7.8,1.9,10.7c0.2,0.4,0.5,0.9,0.8,1.3
							c3.8,6.5,5.3,11.2,2.4,18c-0.2,0.5-0.7,1.4-0.7,1.4h-8.4c1-0.8,2-2,2.6-3.3c1.9-4.7-0.3-8.9-2.5-13c-2.6-5-5.4-10.1-2.5-17.1
							c0.3-0.7,0.9-1.8,0.9-1.8H399.8z"></path>
</g>
</g>
</g>
</g>
</g>
</g>
</svg>